Coordinates
version=1
nRows=20
nColumns=23
inDegrees=yes

Units are S.I. units (second, meters, Newtons, ...)
If the header above contains a line with 'inDegrees', this indicates whether rotational values are in degrees (yes) or radians (no).

endheader
time	pelvis_tilt	pelvis_list	pelvis_rotation	pelvis_tx	pelvis_ty	pelvis_tz	hip_flexion_r	hip_adduction_r	hip_rotation_r	knee_angle_r	knee_angle_r_beta	ankle_angle_r	subtalar_angle_r	mtp_angle_r	hip_flexion_l	hip_adduction_l	hip_rotation_l	knee_angle_l	knee_angle_l_beta	ankle_angle_l	subtalar_angle_l	mtp_angle_l
      0.00000000	      3.86372196	      1.88535400	      9.26548248	      2.27583828	      0.95508117	      1.02223222	     29.48719288	    -10.11671732	     -4.55336964	     93.47393528	      1.63142794	      1.72143953	    -14.05455755	      0.00000000	    -10.03837914	      1.41128799	     -1.76459358	     29.26373191	      0.51074847	     16.37645268	      4.07070525	      0.00000000
      0.00666667	      3.68600435	      0.75226217	      9.24194467	      2.27873028	      0.95976428	      1.02257820	     30.26224394	     -9.05256046	     -5.49586968	     90.27166910	      1.57553785	      1.99245953	    -14.75761409	      0.00000000	    -11.77941664	     -0.25338067	     -2.60114820	     27.69727249	      0.48340860	     13.45438669	      5.06052408	      0.00000000
      0.01333333	      3.25116090	     -0.27557832	      9.20035570	      2.28153591	      0.96385961	      1.02289471	     31.19924004	     -8.12139857	     -6.33261035	     87.01765889	      1.51874466	      2.41922108	    -15.17995442	      0.00000000	    -13.26877273	     -1.67308956	     -3.32934933	     26.07302489	      0.45506013	     10.39559670	      5.86171521	      0.00000000
      0.02000000	      2.86935396	     -1.33766542	      9.18158469	      2.28441064	      0.96785499	      1.02305521	     31.88554128	     -7.17726407	     -7.24503669	     83.59879322	      1.45907419	      2.91744027	    -15.44706316	      0.00000000	    -14.80290272	     -3.09253681	     -4.07679655	     24.40149008	      0.42588634	      7.20815747	      6.49623363	      0.00000000
      0.02666667	      2.32444786	     -2.27604068	      9.06579992	      2.28721993	      0.97142384	      1.02331963	     32.65361424	     -6.31773271	     -7.99949138	     80.11959823	      1.39835078	      3.45598908	    -15.43374012	      0.00000000	    -16.11686599	     -4.27980999	     -4.82116518	     22.80584139	      0.39803702	      3.96077799	      6.97981601	      0.00000000
      0.03333333	      1.67387750	     -3.08154474	      8.84581814	      2.28996078	      0.97460899	      1.02365692	     33.43002029	     -5.54880951	     -8.60951319	     76.57295955	      1.33645026	      4.03501499	    -15.12739678	      0.00000000	    -17.23168187	     -5.23521787	     -5.56749406	     21.37631455	      0.37308707	      0.76169714	      7.26003783	      0.00000000
      0.04000000	      0.96225889	     -3.76580044	      8.57167825	      2.29261299	      0.97749065	      1.02392198	     34.14631755	     -4.90288123	     -9.17366239	     72.94547526	      1.27313872	      4.59015740	    -14.57250466	      0.00000000	    -18.15762374	     -6.01337552	     -6.32570842	     20.17693937	      0.35215403	     -2.34808425	      7.29336041	      0.00000000
      0.04666667	      0.18350507	     -4.23075983	      8.11225133	      2.29507285	      0.97999760	      1.02443648	     34.86212891	     -4.35452581	     -9.49892900	     69.28898138	      1.20932086	      5.13417637	    -13.74435899	      0.00000000	    -18.88442505	     -6.48370865	     -7.13865382	     19.27403970	      0.33639545	     -5.23775592	      7.06094837	      0.00000000
      0.05333333	     -0.61957047	     -4.53827866	      7.58120630	      2.29731391	      0.98220512	      1.02498191	     35.49796181	     -3.90744449	     -9.74231519	     65.57608582	      1.14451861	      5.66666813	    -12.66036461	      0.00000000	    -19.42725597	     -6.73330639	     -7.85278357	     18.68708550	      0.32615117	     -7.88657260	      6.62989278	      0.00000000
      0.06000000	     -1.78747343	     -4.45729645	      6.82840320	      2.29924762	      0.98347642	      1.02575410	     36.50455491	     -3.75395647	     -9.66617615	     61.97705864	      1.08170373	      6.10448176	    -11.47902828	      0.00000000	    -19.33772208	     -6.53155144	     -8.77001843	     18.69285436	      0.32625186	     -9.95718810	      6.27426674	      0.00000000
      0.06666667	     -2.54470907	     -4.40406114	      5.98995864	      2.30104027	      0.98484585	      1.02658483	     36.94697974	     -3.44036515	     -9.66446444	     58.28519109	      1.01726849	      6.65311115	     -9.89015156	      0.00000000	    -19.58992244	     -6.32678311	     -9.61416821	     18.89137459	      0.32971669	    -11.75791193	      5.29264126	      0.00000000
      0.07333333	     -2.68955989	     -4.53998845	      5.50152525	      2.30287002	      0.98675273	      1.02681467	     36.44632472	     -3.17981156	    -10.39259801	     54.38000213	      0.94911008	      7.14935397	     -7.94209579	      0.00000000	    -20.31909112	     -6.36492119	     -9.81803964	     19.29819664	      0.33681707	    -13.11357662	      3.82730818	      0.00000000
      0.08000000	     -3.44391528	     -4.22757115	      4.54612809	      2.30413501	      0.98718741	      1.02786685	     36.73768223	     -2.99797830	    -10.38599437	     50.76344370	      0.88598923	      7.46670467	     -6.27998562	      0.00000000	    -20.10761870	     -5.88076537	    -10.55375671	     20.47503221	      0.35735673	    -13.81010836	      2.75759280	      0.00000000
      0.08666667	     -3.37517877	     -4.28302522	      4.04907828	      2.30563866	      0.98833605	      1.02817074	     35.83848233	     -2.80985597	    -11.45330448	     47.00705655	      0.82042791	      8.02916088	     -3.76966014	      0.00000000	    -20.63234495	     -5.84338669	    -10.58255016	     21.77227743	      0.37999793	    -14.26631045	      1.10342248	      0.00000000
      0.09333333	     -3.41274260	     -4.25151329	      3.35833974	      2.30679453	      0.98879243	      1.02896491	     35.06075515	     -2.45356987	    -12.19820234	     43.39495935	      0.75738492	      8.43603502	     -1.58538167	      0.00000000	    -20.79882510	     -5.70157239	    -10.79791111	     23.62169286	      0.41227632	    -14.31796931	     -0.33626524	      0.00000000
      0.10000000	     -3.38384566	     -4.22202113	      2.69023444	      2.30776757	      0.98879558	      1.02983833	     34.16985201	     -2.05737085	    -13.00366580	     39.96977821	      0.69760423	      8.77411636	      0.60986759	      0.00000000	    -20.81041289	     -5.55378226	    -10.82923080	     25.89481505	      0.45194978	    -14.11671732	     -1.87205771	      0.00000000
      0.10666667	     -3.20536213	     -4.27320612	      2.01999149	      2.30856152	      0.98846700	      1.03082555	     33.08051461	     -1.48214636	    -13.74064287	     36.73094056	      0.64107585	      9.10761742	      2.68314009	      0.00000000	    -20.78348097	     -5.48552133	    -10.81942467	     28.53609139	      0.49804875	    -13.82363339	     -3.37408317	      0.00000000
      0.11333333	     -3.36786072	     -4.08593227	      1.11030587	      2.30888360	      0.98706133	      1.03230282	     32.49675976	     -0.89493948	    -13.80206457	     33.93215277	      0.59222779	      9.33687878	      4.20841886	      0.00000000	    -20.15420278	     -5.10153431	    -10.84626286	     31.64318453	      0.55227776	    -13.37106887	     -4.82592236	      0.00000000
      0.12000000	     -2.70765394	     -4.49943471	      0.76187282	      2.30958996	      0.98642925	      1.03296305	     30.72633897	     -0.03684637	    -14.83782947	     31.06005663	      0.54210025	      9.43717316	      5.99985548	      0.00000000	    -20.27450485	     -5.44596790	    -10.50102964	     34.84394732	      0.60814161	    -13.08798330	     -6.30089054	      0.00000000
      0.12666667	     -2.71268781	     -4.40471377	     -0.03307233	      2.30960268	      0.98419253	      1.03431328	     29.98708058	      0.61963494	    -14.79564024	     28.94680963	      0.50521714	      9.52782756	      7.09682985	      0.00000000	    -19.45697804	     -5.14314929	    -10.35198528	     38.47535751	      0.67152167	    -12.65597933	     -7.66604391	      0.00000000
